<?xml version="1.0" encoding="UTF-8"?>
<svg id="Capa_2" xmlns="http://www.w3.org/2000/svg" viewBox="0 0 246.92 352.89">
  <defs>
    <style>
      .cls-1 {
        fill: #fff;
      }
    </style>
  </defs>
  <g id="Capa_1-2" data-name="Capa_1">
    <g>
      <path class="cls-1" d="M183.5,197.99c-3.43,7.91-8.97,12.92-16.09,16.77-21.81,11.8-34.05,30.06-36.01,54.94-.28,3.56-.15,7.31,4.56,7.54,4.64.22,5.1-3.38,5.35-7.02,1.41-20.3,11.05-35.99,28.78-45.42,14.57-7.75,22.9-19.42,27.4-34.49,2.56-8.58,4.42-17.37,6.59-26.07,4.21-16.91,22.73-22.92,36-11.63,5.05,4.3,7.7,9.92,6.59,16.49-6.99,41.56-18.12,81.75-40.6,117.96-19.25,31.01-45.28,53.2-81.49,62.24-54.18,13.52-100.61-11.94-118.66-64.82-7.35-21.53-7.3-43.31-2.87-64.97,9.39-45.86,19.69-91.54,29.8-137.26,1.83-8.26,8.89-12.37,16.64-10.57,8.44,1.96,12.63,8.39,10.88,16.9-4.49,21.87-9.11,43.71-13.49,65.6-.67,3.35-1.82,5.23-5.45,5.92-4.68.89-9.21,2.53-13.8,3.87-3.52,1.03-7.59,2.04-6.19,6.96,1.42,5,5.36,3.33,8.91,2.57,15.37-3.27,30.64-7.78,46.19-9.32,37.32-3.7,71.73,4.75,101.5,28.67,1.24,1,2.44,2.06,3.62,3.13.58.53,1.07,1.16,1.84,2Z"/>
      <path class="cls-1" d="M144.61,161.71c-13.65-2.89-27.04-5.73-41.03-8.7,2.65-13.39,5.36-27.18,8.1-40.96,6.29-31.67,12.57-63.34,18.9-95,2.43-12.18,11.62-18.69,23.4-16.69,11.45,1.95,18.29,10.92,16.15,23.05-7.93,44.94-16.28,89.81-24.5,134.71-.25,1.34-.74,2.64-1.01,3.6Z"/>
      <path class="cls-1" d="M188.73,187.07c-11.49-6.92-21.76-12.95-31.8-19.33-1.3-.82-2.34-3.61-2.02-5.19,7.39-36.08,14.94-72.14,22.6-108.16,1.88-8.83,10.84-14.37,20.1-12.94,10.48,1.62,17.36,9.5,15.81,19.51-3.59,23.22-7.32,46.44-11.8,69.5-3.71,19.08-8.59,37.92-12.88,56.61Z"/>
      <path class="cls-1" d="M93.47,152.95c-12.49,1.06-24.34,2.06-36.91,3.13,2.76-13.22,5.47-26.19,8.17-39.15,5.2-24.98,10.31-49.98,15.64-74.93,2.63-12.31,12.65-17.74,23.19-12.96,7.19,3.26,10.34,9.07,8.93,17.65-3.23,19.67-6.59,39.33-10.1,58.96-2.84,15.86-5.97,31.67-8.94,47.3Z"/>
    </g>
  </g>
</svg>