<?xml version="1.0" encoding="UTF-8"?>
<svg id="Capa_2" xmlns="http://www.w3.org/2000/svg" viewBox="0 0 252 352.79">
  <defs>
    <style>
      .cls-1 {
        fill: #fff;
      }
    </style>
  </defs>
  <g id="Capa_1-2" data-name="Capa_1">
    <path class="cls-1" d="M131.98,33.26c4.59-1.99,10.08-5.51,16.04-6.72,12.9-2.61,24.27,5.38,27.36,18.2,1.17,4.84,2.02,9.76,3.05,14.64.98,4.66,1.99,9.32,3.14,14.71,1.8-1.12,3.21-1.99,4.62-2.86,13.88-8.57,30.41-2.2,34.47,13.61,12.14,47.32,23.89,94.72,30.22,143.28,4.31,33.04-3.78,62.64-24.37,88.59-27.16,34.25-68.57,44.47-114.19,29.17-33.13-11.11-56.53-33.57-74.14-62.83C18.56,250.45,9.14,214.35.9,177.58c-5.7-25.45,16.45-45.59,42.91-35.9-2.01-11.67-3.97-22.97-5.88-34.27-2.2-12.98-4.49-25.94-6.52-38.94-2.97-19.05,16.8-34.36,35.96-27.92,2.07.7,4.06,1.63,6.77,2.73-2.15-11.55-4.8-22.87,3.75-32.72,4.78-5.51,10.71-9.05,17.84-10.11,9.85-1.46,19.68.41,25.43,8.56,5.17,7.32,7.55,16.61,10.82,24.25ZM69.07,196.54c3.39,7.53,8.42,12.23,15.01,15.79,20.65,11.14,32.38,28.39,34.39,51.95.29,3.36.17,7.02-4.03,7.39-4.58.4-5.13-3.27-5.4-6.92-1.42-19.22-10.65-33.94-27.44-42.88-13.36-7.12-21.22-17.79-25.37-31.69-2.79-9.35-4.7-18.95-7.4-28.33-2.5-8.65-9.7-13.43-19.06-13.33-9.17.1-17.82,5.62-19.56,13.77-.96,4.48-.33,9.51.49,14.13,6.3,35.56,16.46,69.84,35.02,101.13,18.32,30.88,43.43,53.09,79.09,62.29,46.88,12.09,88.49-7.56,108.46-51.58,10.31-22.73,11.68-46.32,6.72-70.26-8.98-43.3-18.59-86.48-28.07-129.67-1.93-8.82-8.13-12.86-16.05-11.18-8.1,1.72-11.97,8.21-10.08,17.34,4.15,20.11,8.51,40.17,12.52,60.3.73,3.67,2.06,5.45,5.83,6.23,5.25,1.09,10.47,2.62,15.4,4.7,1.51.64,2.86,3.76,2.67,5.58-.12,1.15-3.22,2.75-5,2.77-2.48.03-4.99-1.19-7.47-1.93-30.2-8.94-60.63-11.71-91.41-3.07-18.51,5.2-35.05,13.96-49.28,27.46ZM144.87,154.13c-.8-3.91-1.62-7.79-2.39-11.68-7.69-38.87-15.34-77.74-23.07-116.6-2.36-11.85-11.24-18.1-22.48-16.09-11.24,2.01-17.15,11.05-15.09,23.01,5.04,29.24,9.89,58.51,15.15,87.71,2.56,14.21,5.83,28.29,8.7,42,13.32-2.83,25.91-5.51,39.19-8.34ZM63.55,186.81c11.59-6.97,21.51-12.77,31.19-18.96,1.14-.73,1.61-3.68,1.26-5.36-6.76-32.95-13.69-65.86-20.56-98.78-2.27-10.9-9.98-16.78-19.88-15.04-11.03,1.95-16.42,9.98-14.47,21.32,1.92,11.18,3.42,22.45,5.6,33.58,5.44,27.68,11.17,55.3,16.85,83.25ZM189.25,157.09c-4.2-20.24-8.3-40.09-12.44-59.93-3.42-16.38-6.69-32.8-10.4-49.11-2.27-10-10.07-14.6-19.17-12.05-7.87,2.21-12.2,7.97-10.96,16.08,2.87,18.71,6.08,37.37,9.38,56.01,2.73,15.46,5.78,30.86,8.63,45.97,11.99,1.04,23.22,2.01,34.96,3.02Z"/>
  </g>
</svg>