<?xml version="1.0" encoding="UTF-8"?>
<svg id="Capa_2" xmlns="http://www.w3.org/2000/svg" viewBox="0 0 730.59 653.21">
  <defs>
    <style>
      .cls-1 {
        fill: #fff;
      }
    </style>
  </defs>
  <g id="Capa_1-2" data-name="Capa_1">
    <path class="cls-1" d="M131.98,172.8c4.59-1.99,10.08-5.51,16.04-6.72,12.9-2.61,24.27,5.38,27.36,18.2,1.17,4.84,2.02,9.76,3.05,14.64.98,4.66,1.99,9.32,3.14,14.71,1.8-1.12,3.21-1.99,4.62-2.86,13.88-8.57,30.41-2.2,34.47,13.61,12.14,47.32,23.89,94.72,30.22,143.28,4.31,33.04-3.78,62.64-24.37,88.59-27.16,34.25-68.57,44.47-114.19,29.17-33.13-11.11-56.53-33.57-74.14-62.83-19.62-32.6-29.04-68.69-37.28-105.46-5.7-25.45,16.45-45.59,42.91-35.9-2.01-11.67-3.97-22.97-5.88-34.27-2.2-12.98-4.49-25.94-6.52-38.94-2.97-19.05,16.8-34.36,35.96-27.92,2.07.7,4.06,1.63,6.77,2.73-2.15-11.55-4.8-22.87,3.75-32.72,4.78-5.51,10.71-9.05,17.84-10.11,9.85-1.46,19.68.41,25.43,8.56,5.17,7.32,7.55,16.61,10.82,24.25ZM69.07,336.08c3.39,7.53,8.42,12.23,15.01,15.79,20.65,11.14,32.38,28.39,34.39,51.95.29,3.36.17,7.02-4.03,7.39-4.58.4-5.13-3.27-5.4-6.92-1.42-19.22-10.65-33.94-27.44-42.88-13.36-7.12-21.22-17.79-25.37-31.69-2.79-9.35-4.7-18.95-7.4-28.33-2.5-8.65-9.7-13.43-19.06-13.33-9.17.1-17.82,5.62-19.56,13.77-.96,4.48-.33,9.51.49,14.13,6.3,35.56,16.46,69.84,35.02,101.13,18.32,30.88,43.43,53.09,79.09,62.29,46.88,12.09,88.49-7.56,108.46-51.58,10.31-22.73,11.68-46.32,6.72-70.26-8.98-43.3-18.59-86.48-28.07-129.67-1.93-8.82-8.13-12.86-16.05-11.18-8.1,1.72-11.97,8.21-10.08,17.34,4.15,20.11,8.51,40.17,12.52,60.3.73,3.67,2.06,5.45,5.83,6.23,5.25,1.09,10.47,2.62,15.4,4.7,1.51.64,2.86,3.76,2.67,5.58-.12,1.15-3.22,2.75-5,2.77-2.48.03-4.99-1.19-7.47-1.93-30.2-8.94-60.63-11.71-91.41-3.07-18.51,5.2-35.05,13.96-49.28,27.46ZM144.87,293.67c-.8-3.91-1.62-7.79-2.39-11.68-7.69-38.87-15.34-77.74-23.07-116.6-2.36-11.85-11.24-18.1-22.48-16.09-11.24,2.01-17.15,11.05-15.09,23.01,5.04,29.24,9.89,58.51,15.15,87.71,2.56,14.21,5.83,28.29,8.7,42,13.32-2.83,25.91-5.51,39.19-8.34ZM63.55,326.35c11.59-6.97,21.51-12.77,31.19-18.96,1.14-.73,1.61-3.68,1.26-5.36-6.76-32.95-13.69-65.86-20.56-98.78-2.27-10.9-9.98-16.78-19.88-15.04-11.03,1.95-16.42,9.98-14.47,21.32,1.92,11.18,3.42,22.45,5.6,33.58,5.44,27.68,11.17,55.3,16.85,83.25ZM189.25,296.63c-4.2-20.24-8.3-40.09-12.44-59.93-3.42-16.38-6.69-32.8-10.4-49.11-2.27-10-10.07-14.6-19.17-12.05-7.87,2.21-12.2,7.97-10.96,16.08,2.87,18.71,6.08,37.37,9.38,56.01,2.73,15.46,5.78,30.86,8.63,45.97,11.99,1.04,23.22,2.01,34.96,3.02Z"/>
    <g>
      <path class="cls-1" d="M483.67,249.51c2.63,8,6.38,18.7,9.69,29.54,26.6,87.28-9.15,178.62-85.82,218.81-8.98,4.71-18.63,8.1-28,12-29.9,12.44-46.59,42.12-43.09,76.72,3.16,31.22,27.2,58.45,57.46,65.08,30.65,6.71,60.63-8.64,75.37-37.84,11.99-23.75,23.96-47.56,37.19-70.53,22.37-38.8,52.01-70.58,87.61-96.25,28.6-20.63,52.52-45.88,70.08-77.68,41.61-75.32,18.92-175.55-51.31-225.19-8.87-6.27-17.91-12.3-27-18.21-29.39-19.1-63.77-11.65-83.27,17.32-21,31.2-27.52,65.49-18.92,106.22ZM660.38,267.21c3.92,17.14,5.3,34.31.48,51.22-6.24,21.88-18.88,38.28-39.26,46.84-25.54,10.72-48.84-7.53-46.38-36.38.72-8.45,3.14-16.84,5.76-24.89,4.1-12.61,6-25.41,4.16-38.71-1.58-11.43-4.38-22.74-5.34-34.19-.61-7.36-.27-15.47,2.11-22.22,5.66-16.04,21.34-21.25,35.6-12.36,5.51,3.44,10.67,8.03,14.98,13.05,14.23,16.59,22.77,36.28,27.88,57.65ZM423.03,564.44c2.08,15.33,1.98,30.11-1.12,44.55-4.4,20.46-22.01,28.13-39.82,17.77-10.58-6.15-18.03-15.45-23.3-26.69-8.88-18.92-5.52-42.64,7.84-56.62,17.43-18.24,41.06-13.81,52.19,9.88,1.74,3.69,2.92,7.66,4.22,11.11Z"/>
      <path class="cls-1" d="M590.31,100.19c7.5-1.6,13.28-5.84,17.26-12.49,8.36-13.96,16.76-27.9,24.74-42.1,8.2-14.6,3.77-32.26-9.85-41.04-13.41-8.65-29.72-4.75-38.31,9.46-8.31,13.75-16.56,27.55-24.42,41.59-6.2,11.07-5.55,22.49,1.93,33.02,7.18,10.1,17.04,13.69,28.64,11.56Z"/>
      <path class="cls-1" d="M618.13,116.38c2.58,9.8,7.39,15.18,15.25,16.89,7.55,1.64,14.08-.72,18.47-7.3,4.1-6.14,7.87-12.56,11.27-19.16,4.4-8.53,1.91-18.95-5.45-24.9-7.37-5.96-18.26-6.12-23.94,1.25-5.77,7.48-10.24,16.16-14.63,24.7-1.42,2.76-.8,6.71-.97,8.53Z"/>
      <path class="cls-1" d="M659.46,159.46c2.56,7.04,6.62,11.54,13.11,13.25,6.48,1.71,12.36.02,16.18-5.56,4.5-6.58,8.66-13.54,12.13-20.79,3.64-7.63.31-17.02-6.72-21.54-7.03-4.52-16.31-3.16-21.04,3.77-4.27,6.27-8.18,12.89-11.54,19.75-1.57,3.22-1.47,7.38-2.12,11.11Z"/>
      <path class="cls-1" d="M688.87,210.2c1.92,7.17,5.29,10.98,10.7,12.5,5.66,1.6,10.77.14,14.09-4.73,4.26-6.28,8.22-12.86,11.6-19.71,3.29-6.67.83-14.35-5.06-18.52-5.82-4.13-13.91-3.58-18,2.24-4.58,6.51-8.5,13.6-12.17,20.75-1.27,2.47-.93,5.88-1.15,7.46Z"/>
      <path class="cls-1" d="M721.46,238.8c-7.46,1.92-20.09,22.6-18.15,28.17,1.05,3.02,4.03,6.64,6.73,7.39,2.72.75,7.35-.71,9.1-2.96,4.35-5.61,8.08-11.95,10.93-18.56,1.15-2.66.32-7.52-1.41-10.04-1.7-2.47-5.68-3.23-7.2-4Z"/>
      <path class="cls-1" d="M642.49,273.17c-4.19-18.53-10.82-33.75-20.96-47.13-3.28-4.33-7.28-8.29-11.54-11.55-5.74-4.39-10.13-2.49-11.57,4.74-.66,3.31-.49,6.96-.03,10.37,1.84,13.48,4.35,26.88,5.84,40.38,1.54,13.94-1.2,27.32-5.34,40.48-2.3,7.31-4.37,14.91-5.01,22.56-.87,10.51,4.89,16.27,14.81,14.87,5.16-.73,10.58-3.14,14.77-6.37,18.62-14.33,23.86-34.63,20.85-58.16-.52-4.09-1.46-8.13-1.83-10.18Z"/>
      <path class="cls-1" d="M404.61,568.95c-.49-1.57-.9-3.19-1.49-4.72-2.15-5.52-4.86-11.09-10.99-11.93-6.39-.87-11.11,3.11-14.6,8.36-10.44,15.75-2.22,42.51,15.18,49.68,5.79,2.39,9.71,1.06,10.54-5.29,1.55-11.88,1.95-23.95,2.83-35.94-.49-.06-.98-.11-1.47-.17Z"/>
    </g>
  </g>
</svg>