<?xml version="1.0" encoding="UTF-8"?>
<svg id="Capa_2" xmlns="http://www.w3.org/2000/svg" viewBox="0 0 394.6 653.21">
  <defs>
    <style>
      .cls-1 {
        fill: #fff;
      }
    </style>
  </defs>
  <g id="Capa_1-2" data-name="Capa_1">
    <g>
      <path class="cls-1" d="M147.68,249.51c2.63,8,6.38,18.7,9.69,29.54,26.6,87.28-9.15,178.62-85.82,218.81-8.98,4.71-18.63,8.1-28,12-29.9,12.44-46.59,42.12-43.09,76.72,3.16,31.22,27.2,58.45,57.46,65.08,30.65,6.71,60.63-8.64,75.37-37.84,11.99-23.75,23.96-47.56,37.19-70.53,22.37-38.8,52.01-70.58,87.61-96.25,28.6-20.63,52.52-45.88,70.08-77.68,41.61-75.32,18.92-175.55-51.31-225.19-8.87-6.27-17.91-12.3-27-18.21-29.39-19.1-63.77-11.65-83.27,17.32-21,31.2-27.52,65.49-18.92,106.22ZM324.39,267.21c3.92,17.14,5.3,34.31.48,51.22-6.24,21.88-18.88,38.28-39.26,46.84-25.54,10.72-48.84-7.53-46.38-36.38.72-8.45,3.14-16.84,5.76-24.89,4.1-12.61,6-25.41,4.16-38.71-1.58-11.43-4.38-22.74-5.34-34.19-.61-7.36-.27-15.47,2.11-22.22,5.66-16.04,21.34-21.25,35.6-12.36,5.51,3.44,10.67,8.03,14.98,13.05,14.23,16.59,22.77,36.28,27.88,57.65ZM87.04,564.44c2.08,15.33,1.98,30.11-1.12,44.55-4.4,20.46-22.01,28.13-39.82,17.77-10.58-6.15-18.03-15.45-23.3-26.69-8.88-18.92-5.52-42.64,7.84-56.62,17.43-18.24,41.06-13.81,52.19,9.88,1.74,3.69,2.92,7.66,4.22,11.11Z"/>
      <path class="cls-1" d="M254.32,100.19c7.5-1.6,13.28-5.84,17.26-12.49,8.36-13.96,16.76-27.9,24.74-42.1,8.2-14.6,3.77-32.26-9.85-41.04-13.41-8.65-29.72-4.75-38.31,9.46-8.31,13.75-16.56,27.55-24.42,41.59-6.2,11.07-5.55,22.49,1.93,33.02,7.18,10.1,17.04,13.69,28.64,11.56Z"/>
      <path class="cls-1" d="M282.14,116.38c2.58,9.8,7.39,15.18,15.25,16.89,7.55,1.64,14.08-.72,18.47-7.3,4.1-6.14,7.87-12.56,11.27-19.16,4.4-8.53,1.91-18.95-5.45-24.9-7.37-5.96-18.26-6.12-23.94,1.25-5.77,7.48-10.24,16.16-14.63,24.7-1.42,2.76-.8,6.71-.97,8.53Z"/>
      <path class="cls-1" d="M323.47,159.46c2.56,7.04,6.62,11.54,13.11,13.25,6.48,1.71,12.36.02,16.18-5.56,4.5-6.58,8.66-13.54,12.13-20.79,3.64-7.63.31-17.02-6.72-21.54-7.03-4.52-16.31-3.16-21.04,3.77-4.27,6.27-8.18,12.89-11.54,19.75-1.57,3.22-1.47,7.38-2.12,11.11Z"/>
      <path class="cls-1" d="M352.88,210.2c1.92,7.17,5.29,10.98,10.7,12.5,5.66,1.6,10.77.14,14.09-4.73,4.26-6.28,8.22-12.86,11.6-19.71,3.29-6.67.83-14.35-5.06-18.52-5.82-4.13-13.91-3.58-18,2.24-4.58,6.51-8.5,13.6-12.17,20.75-1.27,2.47-.93,5.88-1.15,7.46Z"/>
      <path class="cls-1" d="M385.47,238.8c-7.46,1.92-20.09,22.6-18.15,28.17,1.05,3.02,4.03,6.64,6.73,7.39,2.72.75,7.35-.71,9.1-2.96,4.35-5.61,8.08-11.95,10.93-18.56,1.15-2.66.32-7.52-1.41-10.04-1.7-2.47-5.68-3.23-7.2-4Z"/>
      <path class="cls-1" d="M306.5,273.17c-4.19-18.53-10.82-33.75-20.96-47.13-3.28-4.33-7.28-8.29-11.54-11.55-5.74-4.39-10.13-2.49-11.57,4.74-.66,3.31-.49,6.96-.03,10.37,1.84,13.48,4.35,26.88,5.84,40.38,1.54,13.94-1.2,27.32-5.34,40.48-2.3,7.31-4.37,14.91-5.01,22.56-.87,10.51,4.89,16.27,14.81,14.87,5.16-.73,10.58-3.14,14.77-6.37,18.62-14.33,23.86-34.63,20.85-58.16-.52-4.09-1.46-8.13-1.83-10.18Z"/>
      <path class="cls-1" d="M68.62,568.95c-.49-1.57-.9-3.19-1.49-4.72-2.15-5.52-4.86-11.09-10.99-11.93-6.39-.87-11.11,3.11-14.6,8.36-10.44,15.75-2.22,42.51,15.18,49.68,5.79,2.39,9.71,1.06,10.54-5.29,1.55-11.88,1.95-23.95,2.83-35.94-.49-.06-.98-.11-1.47-.17Z"/>
    </g>
  </g>
</svg>