<?xml version="1.0" encoding="UTF-8"?>
<svg id="Capa_2" xmlns="http://www.w3.org/2000/svg" viewBox="0 0 335.58 656.62">
  <defs>
    <style>
      .cls-1 {
        fill: #fff;
      }
    </style>
  </defs>
  <g id="Capa_1-2" data-name="Capa_1">
    <g>
      <path class="cls-1" d="M199.47,7.24c10.99,8.62,16.3,20.59,20.16,33.56,2.8,9.4,6.13,18.64,9.44,27.88,5.88,16.42,4.08,31.62-6.71,45.55-.55.71-.99,1.5-1.43,2.16,6.58,4,13.3,7.5,19.36,11.89,18.17,13.18,26.21,32.64,31.33,53.43,9.68,39.38,1.67,75.6-21.24,108.64-45.73,65.98-28.9,158.93,37.34,204.73,10.65,7.36,21.57,14.27,29.73,24.67,24.99,31.85,24.07,77.17-2.31,107.51-26.6,30.59-71.03,38.4-105.97,18.21-19.78-11.42-32.79-28.41-39.03-50.47-6.55-23.14-12.5-46.48-19.83-69.37-12.55-39.18-34.04-73.25-61.52-103.74-21.29-23.62-37.44-50.35-47.7-80.62-9.02-26.62-11.76-53.71-7.65-81.5.27-1.81.52-3.62.58-4-6.66-2.95-13.12-5.07-18.71-8.56-3.18-1.99-5.65-5.93-7.21-9.53-2.86-6.6-5.14-13.51-7.06-20.45-3.94-14.21,3.22-26.34,20.83-33.69-1.36-2.8-3.14-5.64-4.17-8.72-7.61-22.61,5.2-41.68,28.97-43.27.52-.04,1.04-.18,1.97-.34-2.09-12.19.1-23.25,9.18-32.13,8.91-8.7,19.69-11.18,32.19-8.63,1.83-9.92,6.29-18.17,14.42-24.14,8.02-5.89,17.04-7.7,27.19-6.56-.15-1.25-.17-2.3-.42-3.29C122.61,22.17,150.77-6.53,185.34,1.3c.69.16,1.45.05,2.17.07,3.99,1.96,7.98,3.92,11.96,5.88ZM244.9,265.56c16.02-33.93,16.69-65.68,3.42-98.02-12.01-29.26-41.97-43.73-72.14-34.05-9.69,3.11-19.32,6.43-28.87,9.96-74.2,27.47-114.76,110.2-91.45,185.77,9.85,31.92,26.87,59.5,48.95,84.21,23.74,26.59,42.75,56.09,55.94,89.32,10.96,27.61,18.88,56.09,25.84,84.9,7,28.99,30.77,49.01,59.93,51,28.7,1.95,55.94-15.1,66.47-41.61,10.83-27.28,3.27-57.45-19.63-76.19-8.57-7.01-18.33-12.55-26.83-19.64-62.68-52.27-77.9-141.54-36.32-211.95,5.17-8.75,10.7-17.28,14.69-23.72ZM176.27,109.96c10.19,4.68,19.83,3.65,28.61-3.29,8.54-6.76,11.92-17.88,8.49-28.5-4.6-14.27-9.42-28.46-14.44-42.59-5.08-14.31-19.52-21.34-33.46-16.65-13.95,4.69-21.39,18.99-16.85,33.43,4.5,14.29,9.49,28.44,14.4,42.6,2.34,6.75,6.72,11.84,13.25,15ZM147.77,117.95c.2-1.76,1.57-5.27.77-8.19-2.29-8.32-4.74-16.75-8.48-24.48-3.68-7.6-13.3-10.07-21.17-6.88-8.03,3.25-12.83,11.8-10.62,20.22,1.82,6.94,4.18,13.8,6.93,20.43,2.8,6.76,8.52,10.12,15.76,10.23,7.29.11,12.62-3.46,16.82-11.33ZM79.9,153.43c5.95,2.53,11.65,2.19,16.65-2.06,4.92-4.19,6.88-9.68,5.07-15.95-1.84-6.39-3.94-12.74-6.45-18.9-2.46-6.01-7.36-9.15-13.91-9.23-6.33-.08-11.03,2.99-13.95,8.45-4.46,8.32,4.07,33.48,12.6,37.69ZM64.48,184.16c.13-1.45,1.12-4.36.45-6.82-1.95-7.12-4.17-14.22-7.06-21-2.52-5.91-9.43-8.3-15.51-6.35-6.31,2.03-10.55,8.16-8.95,14.68,1.75,7.15,4.24,14.19,7.09,20.99,2,4.79,6.4,7.04,11.68,6.95,5.26-.09,9.11-2.63,12.31-8.45ZM28.87,201.7c-1.38.27-5.04-.05-6.97,1.63-2.13,1.86-4.13,5.83-3.61,8.36,1.34,6.63,3.57,13.22,6.51,19.31,1.14,2.35,5.12,4.5,7.85,4.57,2.45.06,5.78-2.34,7.3-4.61,3.09-4.63-4.3-25.83-11.08-29.26Z"/>
      <path class="cls-1" d="M143.86,322.28c-10.03,20.7-30.98,25.35-47.81,13.49-15.86-11.18-24.26-27.07-26.76-46.07-1.96-14.88,1.35-29.01,7.22-42.65,8.57-19.92,21.03-36.91,38.56-49.81,4.7-3.46,10.07-6.37,15.57-8.3,18.04-6.32,34.09,5.46,32.72,24.58-.57,7.88-3.97,15.64-6.58,23.28-1.85,5.4-4.74,10.44-6.84,15.77-5.25,13.36-6.7,27.13-4.52,41.38,1.67,10.91,1.47,21.75-1.56,28.34ZM126,318.36c3.26-7.41,2.88-15.16,1.76-22.89-2.37-16.27-.96-32.11,5.08-47.42,3.53-8.95,7.51-17.72,10.97-26.69,1.17-3.03,1.94-6.46,1.82-9.67-.21-5.82-3.62-8.19-8.96-6.03-4.73,1.92-9.42,4.46-13.41,7.62-15.63,12.39-26.33,28.46-32.95,47.14-6.83,19.27-5.13,37.49,8.17,53.84,4.22,5.19,9.29,9.06,16.1,9.97,5.05.68,9.16-.84,11.43-5.86Z"/>
      <path class="cls-1" d="M238.53,555.92c2.08-3.04,3.95-6.25,6.26-9.09,14.85-18.23,37.41-16.7,49.8,3.29,9.5,15.33,7.91,36.9-3.95,51.46-7.04,8.65-15.7,15.11-26.61,18.08-18.37,5.01-32.72-5.75-33.11-24.71-.21-10.19,3.99-30.84,7.61-39.03ZM279.41,586.6c3.39-7.98,4.8-15.71,1.88-23.64-2.01-5.47-5.59-10.06-11.56-10.9-6.05-.85-10.01,3.45-12.79,8.19-6.55,11.19-7.97,23.7-7.98,36.33,0,5.35,3.18,7.31,8.83,6.14,9.83-2.02,16.9-7.92,21.61-16.13Z"/>
    </g>
  </g>
</svg>