<?xml version="1.0" encoding="UTF-8"?>
<svg id="Capa_2" xmlns="http://www.w3.org/2000/svg" viewBox="0 0 216.19 383.27">
  <defs>
    <style>
      .cls-1 {
        fill: #fff;
      }
    </style>
  </defs>
  <g id="Capa_1-2" data-name="Capa_1">
    <g>
      <path class="cls-1" d="M115.33,0c8.14,1.71,16.47,2.81,24.4,5.22,41.18,12.53,71.78,49.95,75.12,92.93,1.67,21.46,2.54,43.14-2.2,64.46-5.06,22.76-16.12,42.27-32.92,58.42-9.11,8.76-17.88,17.73-24.37,28.71-7.06,11.95-10.87,24.87-11.45,38.67-.33,7.71-.06,15.44-.06,23.4,6.99,1.52,13.22,4.38,18.43,9.3,13.94,13.16,15.23,34.2,2.97,49.04-12.11,14.66-33.42,17.31-48.79,6.06-7.33-5.36-9.84-5.36-17.25.04-11.75,8.57-27.09,9.44-39.41,1.79-12.8-7.94-19.16-19.73-17.47-34.7,1.77-15.59,10.89-25.81,25.93-30.58,1.07-.34,2.16-.59,3-.82,3.91-32.15-3.91-60.49-27.53-83.38-10.25-9.93-20.24-19.94-27.47-32.4C6.04,178.56.43,159.61.17,139.26c-.18-13.83-.46-27.74.66-41.5C4.5,52.5,39.05,13.21,83.48,3.04,89.05,1.76,94.73,1,100.36,0c4.99,0,9.98,0,14.97,0ZM83.16,280.67c7.82-1.76,15.34-3.78,22.99-5.05,4.6-.76,7.51,1.88,7.65,5.62.14,3.68-2.51,5.93-7.25,6.25-7.37.49-14.21,2.67-20.19,7.01-1.24.9-2.28,2.9-2.35,4.45-.28,5.72-.08,11.47-.12,17.21-.04,4.91-2.02,6.91-7.01,7.24-10.55.69-19.26,7.55-22.02,17.34-2.75,9.79,1.19,20.33,9.81,26.25,8.71,5.98,19.2,5.69,27.9-.75,10.7-7.94,19.86-7.98,30.37-.15,8.88,6.62,19.35,6.93,28.2.84,8.43-5.8,12.35-16.24,9.76-25.94-2.66-9.95-11.4-16.87-22.2-17.59-4.92-.33-6.86-2.34-6.88-7.36-.02-8.86-.16-17.72.08-26.56.39-14.14,3.62-27.6,10.05-40.28,7.29-14.36,18.01-25.9,29.54-36.87,13.37-12.73,22.7-28.04,27.77-45.81,6.84-23.99,6.29-48.67,3.01-72.78-6.03-44.45-40.58-76.35-84.81-81.22C69.62,7.25,24.4,40.05,14.22,87.22c-2.8,12.97-2.2,26.05-2.13,39.12.05,8.59.02,17.27,1.21,25.74,3.59,25.57,15.78,46.58,34.73,64.03,19.19,17.66,32.24,38.83,35.13,64.56Z"/>
      <path class="cls-1" d="M173.7,176.65c-.05,11.17-8.69,20.28-19.83,20.92-10.98.63-20.81-7.71-21.98-18.67-.32-3.02-.05-6.13,3.08-7.3,1.82-.68,4.69-.61,6.15.44,1.5,1.08,2.16,3.67,2.65,5.74.93,3.89,3.03,6.58,6.89,7.57,3.74.95,6.95-.32,9.24-3.38,2.31-3.08,2.83-6.74.43-9.72-1.64-2.04-4.35-3.74-6.89-4.4-4.59-1.19-7.1-3.28-6.61-6.93.49-3.66,3.61-5.62,8.17-5.13,10.53,1.13,18.74,10.3,18.69,20.86Z"/>
      <path class="cls-1" d="M30.4,95.08c2.59-6.97,4.66-14.19,7.87-20.86,7.77-16.15,20.03-28.06,36.08-36.04,3.96-1.97,7.37-1.1,9,2.14,1.67,3.3.37,6.35-3.62,8.52-.33.18-.66.36-.99.53-9.86,5-17.99,12.02-24.41,21.01-5.28,7.39-8.91,15.52-10.89,24.39-.22.97-.39,1.97-.75,2.89-1.2,3.06-3.52,4.62-6.75,3.96-3.21-.65-4.78-2.94-5.55-6.54Z"/>
      <path class="cls-1" d="M113.82,233.53c-9.05,0-16.85-6.97-17.86-15.93-.48-4.27,1.46-7.36,4.98-7.93,3.52-.57,6.21,1.75,6.89,6.12.53,3.42,2.36,5.47,5.82,5.72,3.18.23,5.51-2.06,6.15-5.75.75-4.34,3.4-6.67,6.93-6.08,3.51.58,5.45,3.69,4.96,7.95-1.04,8.99-8.82,15.91-17.88,15.9Z"/>
      <path class="cls-1" d="M185.68,119.77c0,9.06-6.93,16.83-15.91,17.86-4.25.49-7.37-1.46-7.94-4.98-.57-3.53,1.73-6.21,6.11-6.89,3.41-.53,5.47-2.35,5.73-5.82.23-3.19-2.04-5.52-5.74-6.16-4.34-.75-6.67-3.4-6.09-6.92.58-3.52,3.67-5.45,7.94-4.97,8.98,1.02,15.91,8.81,15.91,17.87Z"/>
      <path class="cls-1" d="M131.77,134.69c.03,4.91-4.09,9.03-9,9-4.9-.02-8.98-4.19-8.91-9.1.07-4.76,4.05-8.73,8.81-8.81,4.91-.08,9.06,3.99,9.09,8.9Z"/>
      <path class="cls-1" d="M89.91,170.54c.07-4.91,4.26-8.95,9.17-8.83,4.91.12,8.91,4.36,8.74,9.25-.17,4.77-4.21,8.66-8.98,8.65-4.9-.01-8.99-4.17-8.93-9.08Z"/>
      <path class="cls-1" d="M107.81,35.8c.07,3.23-2.6,6.01-5.83,6.08-3.23.07-6-2.59-6.07-5.83-.07-3.25,2.57-6.01,5.83-6.08,3.24-.07,6.01,2.58,6.08,5.83Z"/>
    </g>
  </g>
</svg>