<?xml version="1.0" encoding="UTF-8"?>
<svg id="Capa_2" xmlns="http://www.w3.org/2000/svg" viewBox="0 0 269.57 383.36">
  <defs>
    <style>
      .cls-1 {
        fill: #fff;
      }
    </style>
  </defs>
  <g id="Capa_1-2" data-name="Capa_1">
    <g>
      <path class="cls-1" d="M171.49,0c6.29,2.88,8.8,7.74,8.34,14.64-.38,5.83-.04,11.7-.09,17.55-.06,6.95-4.74,11.94-11.15,11.96-6.38.02-11.18-4.98-11.27-11.89-.07-5.73.27-11.47-.09-17.18-.44-6.95,1.85-12.06,8.28-15.09h5.99Z"/>
      <path class="cls-1" d="M52.03,167.75c12.97-14.39,30.05-16.05,44.71-7.7,10.04-11.8,22.68-15.85,38.2-11.59,0-2.19,0-4.02,0-5.86,0-13.35-.11-26.69.03-40.04.2-20.04,15.53-35.01,35.05-34.4,17.3.54,31.97,14.91,32.16,32.22.29,25.69.16,51.39.05,77.08-.01,2.97.71,4.26,3.74,5.09,24.31,6.64,41.11,28.41,41.03,53.52-.04,13.32.27,26.8-1.57,39.92-3.76,26.82-17.82,47.74-40.15,63-2.43,1.66-3.81,3.39-4.46,6.31-4.86,21.88-24,37.66-46.44,37.87-27.06.26-54.13.25-81.2,0-25.81-.24-46.68-21.5-47.6-47.77-.07-1.98-1.04-4.33-2.36-5.81C8.19,312.82.22,293.3.09,270.77c-.14-24.57-.09-49.14-.02-73.72.08-27.04,27.02-42.87,50.76-29.89.32.18.66.33,1.2.59ZM202.29,204.68c0,2.08,0,3.43,0,4.78,0,12.72.06,25.45-.04,38.17-.05,6.34-4.61,11.06-10.62,11.35-6.05.29-11.16-4.34-11.74-10.7-.11-1.24-.05-2.49-.05-3.74,0-47.15,0-94.3-.01-141.45,0-7.42-4.44-12.41-10.99-12.51-6.62-.1-11.37,5.08-11.46,12.53-.02,1.25,0,2.49,0,3.74,0,27.19.03,54.38-.03,81.57-.01,6.54-4.7,11.32-10.87,11.45-6.12.13-11.07-4.51-11.49-10.93-.16-2.48-.03-4.99-.06-7.48-.08-7.31-4.67-12.31-11.23-12.27-6.35.04-11.07,5.04-11.21,12.02-.11,4.99.02,9.98-.12,14.97-.17,6.23-4.87,10.97-10.87,11.14-6.07.18-11.16-4.6-11.52-10.9-.13-2.24-.02-4.49-.04-6.73-.07-7.25-4.72-12.3-11.27-12.26-6.5.04-11.11,5.13-11.19,12.4-.05,4.74.1,9.49-.12,14.22-.3,6.33-5.43,10.99-11.57,10.8-6.02-.19-10.6-4.91-10.8-11.19-.07-2.12,0-4.24-.02-6.36-.07-7.24-4.7-12.35-11.2-12.37-6.55-.03-11.24,5.03-11.25,12.28-.02,24.57-.13,49.15.04,73.72.13,18.24,6.98,33.77,20.24,46.27,3.76,3.55,5.69,7.41,5.36,12.5-.11,1.74-.09,3.49-.03,5.24.48,14.56,11.68,25.77,26.19,25.83,26.44.12,52.89.12,79.33,0,13.57-.06,24.93-10.21,25.78-23.73.44-7.07,3.63-10.96,9.43-14.29,17.27-9.92,28.47-24.79,33.34-44.07,3.9-15.43,3.06-31.28,1.84-46.89-1.01-12.95-9.06-21.65-21.75-27.09Z"/>
      <path class="cls-1" d="M132.62,53.9c-.68,4.77-2.63,8.21-6.7,10.2-4.17,2.04-8.5,1.89-11.9-1.25-6.13-5.66-12.09-11.54-17.7-17.71-3.91-4.3-3.15-10.94.97-14.9,4.14-3.99,10.63-4.44,14.95-.45,5.94,5.5,11.66,11.27,17.15,17.22,1.64,1.78,2.19,4.57,3.24,6.9Z"/>
      <path class="cls-1" d="M216.47,65.88c-4.8-.68-8.24-2.65-10.23-6.7-2.04-4.16-1.87-8.51,1.26-11.91,5.66-6.14,11.54-12.1,17.72-17.71,4.33-3.93,10.91-3.18,14.9.95,4,4.14,4.46,10.61.46,14.95-5.49,5.95-11.27,11.66-17.23,17.15-1.78,1.64-4.56,2.21-6.88,3.27Z"/>
      <path class="cls-1" d="M90.2,113.02c-3.86,0-7.71.1-11.57-.03-6.3-.21-11.16-5.18-11.14-11.23.02-6.07,4.88-11.03,11.21-11.15,7.46-.13,14.92-.12,22.38,0,6.39.1,11.21,4.93,11.28,11.04.07,6.27-4.79,11.19-11.35,11.36-3.6.09-7.21.02-10.82.01Z"/>
      <path class="cls-1" d="M247.47,113.02c-3.86,0-7.71.1-11.57-.02-6.34-.19-11.19-5.09-11.21-11.16-.02-6.07,4.82-11.1,11.13-11.22,7.58-.14,15.17-.15,22.76,0,6.31.13,11.05,5.19,10.98,11.32-.07,5.96-4.77,10.8-10.91,11.04-3.73.15-7.46.03-11.19.03Z"/>
    </g>
  </g>
</svg>