<?xml version="1.0" encoding="UTF-8"?>
<svg id="Capa_2" xmlns="http://www.w3.org/2000/svg" viewBox="0 0 410.63 300.23">
  <defs>
    <style>
      .cls-1 {
        fill: #fff;
      }
    </style>
  </defs>
  <g id="Capa_1-2" data-name="Capa_1">
    <path class="cls-1" d="M337.92,194.84c-3.92-7.55-4.17-15.84-3.21-24.3.23-2.01.44-4.05.38-6.06-.4-12.52-13.57-19.57-24.16-12.68-3.42,2.23-6.39,5.46-8.9,8.74-9.52,12.43-21.36,21.02-37.52,19.55-9.32-.85-16.28,2.25-23.15,7.41-4.4,3.3-8.62,6.94-13.36,9.66-5.21,2.99-10.76,5.6-16.45,7.48-8.37,2.77-16.02,6.48-22.65,12.37-23.98,21.3-50.77,37.67-81.61,47.26-9.35,2.91-18.34,7.05-27.33,10.98-1.79.78-3.68,2.99-4.14,4.88-1.93,7.94-6.18,11.83-14.4,12.44-6.01.45-11.48-1.2-16.54-4.25-3.04-1.83-5.79-2.22-8.77.11-1.22.95-2.78,1.79-4.28,2.02-7.51,1.13-15.03,2.41-22.6,2.91-5.29.35-8.91-3.04-9.21-7.28-.34-4.89,3.24-9.89,8.41-9.73,6.16.19,10-3.4,14.77-5.98,11.66-6.32,23.37-12.85,35.74-17.5,17.2-6.47,33.19-14.92,48.63-24.68,10.76-6.8,21.88-13.04,32.4-20.18,4.81-3.27,8.84-7.85,12.71-12.28,4.95-5.67,9.41-11.57,16.82-14.59,4.3-1.75,6.58-4.98,6.55-10.73-.03-6.13,2.32-12.45,4.46-18.39,4.47-12.36,9.67-24.46,14.25-36.79,5.89-15.85,8.37-32.39,9.61-49.21,1.08-14.61,3.83-29,9.54-42.58,2.05-4.88,4.67-9.7,7.9-13.87,9.13-11.76,23.06-12.69,34.14-2.67,6.71,6.07,10.81,13.88,14.26,22.06,6.06,14.37,8.41,29.67,11.6,44.82,1.99,9.47,6.47,18.42,9.87,27.6.83,2.23,2.17,2.64,4.71,2.18,22.14-4,44.36-4.7,66.38.54,13.81,3.28,25.44,10.25,32.92,22.92.65,1.09,1.62,2.07,2.62,2.86,12.06,9.47,14.6,22.11,10.45,35.87-2.55,8.46-6.84,16.53-11.27,24.24-4.06,7.07-5.68,14.14-3.98,22,3.49,16.17.75,32.05-2.82,47.71-2.33,10.24-5.7,20.31-9.35,30.17-3.45,9.3-6.26,10.99-16.13,10.21-12.83-1.02-25.72-2.04-38.38-4.23-21.97-3.8-44.03-4.51-66.21-3.87-.72.02-1.56.26-2.15-.02-1.83-.87-4.63-1.62-5.07-3.03-.54-1.72.27-4.89,1.64-6,4-3.24,8.3-6.47,13.02-8.39,4.84-1.97,7.81-5.1,9.06-9.68,3.57-13.06,8.62-25.72,9.03-39.6.39-13.09,10.32-22.59,22.03-22.09,2.14.09,4.6.2,6.31,1.27,4.27,2.66,6.94,1.06,10.37-1.86,3.66-3.11,8.34-5.01,13.05-7.71ZM286.5,105.18c-7.56-12.14-10.74-26.24-13.04-40.79-2.61-16.49-6.99-32.58-16.53-46.65-10.74-15.85-25.52-14.96-34.39,1.91-1.01,1.92-2.18,3.84-2.7,5.9-2.97,11.74-6.28,23.42-8.47,35.31-2.28,12.34-3.08,24.95-5.17,37.33-1.5,8.87-1.37,9.86,7.43,12.71.83.27,1.66.49,2.5.73,2.05.57,3.33.28,4.33-2.09,3.63-8.66,7.64-17.16,11.36-25.78.71-1.65,1.07-3.61,1.04-5.41-.16-9.55-.38-19.1-.84-28.64-.12-2.5-1.03-5-1.83-7.42-1.43-4.37-3.29-8.61-4.42-13.05-.29-1.17,1.47-2.85,2.29-4.3,1.28,1.07,3.11,1.89,3.74,3.26,1.49,3.25,2.51,6.72,3.52,10.17,1.16,3.95,2.74,7.91,3.02,11.95,1.86,27.27,3.02,54.6,5.23,81.85,1.46,17.95,10.24,28.11,25.51,32.25,10.03,2.72,22.25,1.24,29.16-9.54,2.05-3.19,5.46-5.52,8.24-8.24.81-.79,2.07-1.42,2.38-2.37,2.85-8.87,5.19-17.86,2.78-27.23-1.83-7.1-5.16-9.21-12.2-7.73-7.38,1.55-14.81,3.25-19.76,9.74-1.45,1.91-3.02,3.58-5.32,1.93-2.65-1.9-1.28-4.37.41-5.95,3.55-3.31,7.42-6.27,11.72-9.84ZM275.36,173.16c-21.8-4.04-34.95-15.9-38.82-38.3-2.48,1.81-5.23,3.49-5.84,5.75-1.03,3.8-3.05,6.26-6.39,7.6-3.34,1.34-6.83,2.64-10.36,3.05-9.2,1.08-15.26,6.29-19.89,13.79-1.06,1.72-2.35,3.31-3.35,5.07-4.47,7.82-11.86,12.58-19.15,16.99-4.73,2.86-8.47,6.27-12.06,10.26-4.82,5.35-9.74,10.68-15.17,15.38-3.32,2.88-7.74,4.47-11.57,6.8-15.96,9.67-31.89,19.38-47.8,29.13-.88.54-2.07,1.59-2.07,2.4,0,4.93.58,9.76,4.12,13.46,6.34-2.27,12.25-4.64,18.32-6.51,29.7-9.14,55.64-24.77,78.68-45.41,7.59-6.8,16.28-11.31,26.02-14.25,4.77-1.44,9.47-3.61,13.69-6.25,6.37-3.98,12.3-8.66,18.42-13.04,6.26-4.49,13.07-6.38,20.87-5.41,4.03.5,8.22-.31,12.34-.52ZM262.77,285.56c2.28,0,4.56.05,6.84,0,17.97-.42,35.81.42,53.63,3.27,14.25,2.28,28.73,3.17,43.08,4.85,4.88.57,7.73-1.39,9.03-5.93,3.57-12.48,7.64-24.84,10.51-37.47,2.92-12.86,4-25.93,1.03-39.14-1.95-8.69.23-16.86,5.15-24.37,5.25-8.03.81-19.49-8.5-21.91-7.37-1.92-14.7-1.26-21.61,1.96-7.95,3.7-11.39,11.92-7.92,19.95,1.97,4.56,4.69,9.07,8.04,12.7,4.12,4.45,6.12,9.17,6.23,15.14.14,7.37.38,14.77,1.3,22.07.96,7.67-.46,14.55-4.14,21.27-1.85,3.38-3.17,7.12-4.25,10.84-1.8,6.18-5.02,8.99-11.44,9.1-18.09.3-36.18.58-54.27.8-2,.02-4.02-.29-6-.61-9.94-1.61-18.9.55-26.7,7.5ZM316.83,141.87c4.93,1.46,9.7,2.95,14.52,4.24,1.15.31,2.56.2,3.72-.15,17.12-5.15,31.53-14.84,45.2-27.03-20.43-13.8-42.97-11.89-65.65-11.51q4.82,10.74,2.22,34.45ZM349.62,193.65c-.81-2.17-1.58-4.02-2.2-5.92-2.42-7.45-1.23-14.35,3.65-20.42,12-14.94,39.84-12.3,49.19,5.93,1.45-6.11,3.06-11.02,3.7-16.05.89-7.01-.98-13.46-5.82-18.89-3.82-4.28-7.55-8.65-11.34-12.96-.55-.62-1.24-1.12-2.02-1.81-13.68,12.52-28.82,22.37-46.32,28.33,2.88,6.49,3.34,12.7,2.54,19.18-.83,6.78-.89,13.53,2.11,20,1.34,2.89,3.07,4.01,6.5,2.61ZM350.04,220.32c5.34,1.18,8.79-1.15,10.6-4.95.99-2.08.87-5.66-.32-7.62-2.91-4.78-6.92-7.77-13.44-7.34-19.86,1.3-34.02,19.52-27.82,37.16,1.53,4.34,5.27,7.89,8,11.81,4.16-2.7,8.5-5.17,12.42-8.18,2.2-1.69,2.45-3.98.39-6.73-3.88-5.2-1.79-10.95,4.41-13.05,2.01-.68,4.21-.82,5.76-1.1ZM75.76,253.22c-4.1,1.48-8.45,3-12.75,4.63-13.94,5.31-27.76,10.92-39.7,20.12-3.59,2.77-7.18,4.71-11.86,4.27-2.39-.22-4.62.31-5.32,3.87,1.6.33,3.1,1.02,4.52.87,5.84-.61,11.66-1.37,17.46-2.29,1.66-.26,3.39-.98,4.77-1.95,4.89-3.43,9.59-2.98,14.66-.29,3.01,1.6,6.34,2.97,9.68,3.52,7.4,1.21,10.23-1.31,12.45-8.4.86-2.75,3.35-5.15,5.53-7.28,1.35-1.32,3.49-1.82,4.95-2.53-1.52-5.06-2.91-9.69-4.37-14.55ZM182.51,170.47c3.31-4.77,6.06-8.99,9.08-13,4.07-5.38,8.75-9.93,15.84-11.24,4.24-.78,8.45-1.89,12.57-3.19,4.48-1.41,4.64-2.73,2.89-7.02-2.1-5.14-3.61-10.51-5.48-15.75-.29-.8-.97-1.76-1.7-2.05-4.37-1.69-8.8-3.2-13.22-4.78-6.43,17.95-20.73,48.03-19.98,57.03ZM303.9,272.23c2.05,0,3.17.01,4.29,0,13.3-.18,26.61-.37,39.91-.56,5.75-.08,6.76-1.15,6.81-7.25-1.29.1-2.56.21-3.84.28-25.36,1.38-44.89-20.7-38.94-43.66.23-.89-.33-1.98-.52-2.98-1.15.33-2.95.31-3.34,1.05-1.17,2.2-2.35,4.67-2.46,7.08-.11,2.65.78,5.41,1.56,8.03,3.85,12.8,4.35,25.32-3.48,38.01ZM314.68,211.53c-8.34-3.63-15.4-1.95-19.28,4.78-1.8,3.13-2.52,7-3.18,10.63-.83,4.54-.6,9.3-1.72,13.74-2.53,10.05-5.62,19.96-8.47,29.91,3.6.57,7.27,1.42,10.98,1.59,1.51.07,3.66-.94,4.54-2.16,5.79-8.07,7.46-17.11,5.39-26.8-1.11-5.23-2.75-10.36-3.6-15.62-1.54-9.57,5.24-16.95,15.34-16.08ZM343.69,228.3c10.08,14.69-2.37,19.41-9.99,26.29,7.4,3.84,14.86,4.64,22.54,2.65,1.43-.37,2.89-1.75,3.75-3.05,6.34-9.59,1.97-19.68,1.85-28.85-6.22,1.01-11.85,1.93-18.15,2.96ZM236.29,128.54c-.9-10.73-1.77-21.14-2.64-31.56-3.47,6-6.12,12.18-8.56,18.44-2.39,6.14-.36,11.47,3.15,16.52,2.8-1.19,5.31-2.24,8.04-3.4Z"/>
  </g>
</svg>